<svg id="Layer_1" data-name="Layer 1" xmlns="http://www.w3.org/2000/svg" viewBox="0 0 150 121.9"><defs><style>.cls-1{fill:#fff;}</style></defs><title>twitter</title><g id="layer1"><g id="path5"><path class="cls-1" d="M150,14.43a61.52,61.52,0,0,1-17.67,4.85,30.86,30.86,0,0,0,13.53-17,61.61,61.61,0,0,1-19.54,7.47A30.8,30.8,0,0,0,73.87,37.79,87.37,87.37,0,0,1,10.44,5.63,30.81,30.81,0,0,0,20,46.72,30.65,30.65,0,0,1,6,42.87c0,.13,0,.26,0,.39A30.8,30.8,0,0,0,30.71,73.43a30.85,30.85,0,0,1-13.9.53A30.8,30.8,0,0,0,45.56,95.33,61.74,61.74,0,0,1,7.34,108.5,62.59,62.59,0,0,1,0,108.07,87.1,87.1,0,0,0,47.17,121.9c56.6,0,87.56-46.89,87.56-87.56q0-2-.09-4A62.52,62.52,0,0,0,150,14.43Z"/></g></g></svg>