<svg id="Layer_1" data-name="Layer 1" xmlns="http://www.w3.org/2000/svg" viewBox="0 0 800 240"><defs><style>.cls-1{fill:#00505d;}.cls-2,.cls-4{fill:#fff;}.cls-3{fill:#00434a;}.cls-4{font-size:113.39px;font-family:MyriadPro-Regular, Myriad Pro;}.cls-5{letter-spacing:-0.01em;}</style></defs><title>esquiloww</title><path class="cls-1" d="M156.83,229.5V10.5H690a109.5,109.5,0,1,1,0,219Z"/><path class="cls-2" d="M690,11a108.87,108.87,0,0,1,77,186,108.22,108.22,0,0,1-77,32H157.33V11H690m0-1H156.33V230H690c60.5,0,110-49.5,110-110h0c0-60.5-49.5-110-110-110Z"/><path class="cls-3" d="M120,237.17A117.17,117.17,0,1,1,237.17,120,117.3,117.3,0,0,1,120,237.17Z"/><path class="cls-2" d="M120,5.67a114.33,114.33,0,0,1,80.84,195.17A114.33,114.33,0,0,1,39.16,39.16,113.58,113.58,0,0,1,120,5.67M120,0A120,120,0,1,0,240,120,120,120,0,0,0,120,0Z"/><path class="cls-2" d="M120,12.83a107.17,107.17,0,0,1,75.78,182.94A107.17,107.17,0,0,1,44.22,44.22,106.46,106.46,0,0,1,120,12.83M120,10A110,110,0,1,0,230,120,110,110,0,0,0,120,10Z"/><text class="cls-4" transform="translate(247 158.33)">Esquil<tspan class="cls-5" x="280.28" y="0">o</tspan><tspan x="341.74" y="0">wW</tspan></text></svg>